<svg width="120" height="83" viewBox="0 0 120 83" fill="none" xmlns="http://www.w3.org/2000/svg">
<path fill-rule="evenodd" clip-rule="evenodd" d="M57.3439 23.5958C57.6922 23.2466 58.106 22.9695 58.5616 22.7805C59.0172 22.5914 59.5056 22.4941 59.9989 22.4941C60.4921 22.4941 60.9805 22.5914 61.4361 22.7805C61.8917 22.9695 62.3055 23.2466 62.6539 23.5958L77.6539 38.5958C78.0025 38.9445 78.2791 39.3584 78.4678 39.814C78.6565 40.2695 78.7536 40.7578 78.7536 41.2508C78.7536 41.7439 78.6565 42.2322 78.4678 42.6877C78.2791 43.1433 78.0025 43.5572 77.6539 43.9058C77.3052 44.2545 76.8913 44.5311 76.4358 44.7198C75.9802 44.9085 75.492 45.0056 74.9989 45.0056C74.5058 45.0056 74.0175 44.9085 73.562 44.7198C73.1065 44.5311 72.6925 44.2545 72.3439 43.9058L63.7489 35.3033V63.7508C63.7489 64.7454 63.3538 65.6992 62.6505 66.4025C61.9473 67.1058 60.9934 67.5008 59.9989 67.5008C59.0043 67.5008 58.0505 67.1058 57.3472 66.4025C56.644 65.6992 56.2489 64.7454 56.2489 63.7508V35.3033L47.6539 43.9058C46.9497 44.61 45.9947 45.0056 44.9989 45.0056C44.0031 45.0056 43.048 44.61 42.3439 43.9058C41.6397 43.2017 41.2441 42.2467 41.2441 41.2508C41.2441 40.255 41.6397 39.3 42.3439 38.5958L57.3439 23.5958Z" fill="#CFD34E"/>
<path d="M33.045 10.065C40.5411 3.60101 50.1018 0.0310389 60 0C80.175 0 96.9225 15 98.745 34.3425C110.685 36.03 120 46.0275 120 58.2975C120 71.7675 108.765 82.5 95.1525 82.5H28.3575C12.81 82.5 0 70.245 0 54.885C0 41.6625 9.495 30.7125 22.065 27.9375C23.1375 21.465 27.3 15.015 33.045 10.065ZM37.9425 15.7425C32.265 20.64 29.295 26.5425 29.295 31.1625V34.5225L25.9575 34.89C15.48 36.0375 7.5 44.64 7.5 54.885C7.5 65.8875 16.725 75 28.3575 75H95.1525C104.85 75 112.5 67.41 112.5 58.2975C112.5 49.1775 104.85 41.5875 95.1525 41.5875H91.4025V37.8375C91.41 21.1875 77.46 7.5 60 7.5C51.8991 7.53236 44.0763 10.4583 37.9425 15.75V15.7425Z" fill="#CFD34E"/>
</svg>
