<svg width="100" height="100" viewBox="0 0 100 100" fill="none" xmlns="http://www.w3.org/2000/svg">
<path d="M67.8366 44.6632C68.1276 44.9535 68.3585 45.2983 68.516 45.678C68.6736 46.0576 68.7546 46.4647 68.7546 46.8757C68.7546 47.2867 68.6736 47.6938 68.516 48.0734C68.3585 48.4531 68.1276 48.7979 67.8366 49.0882L49.0866 67.8382C48.7963 68.1292 48.4514 68.3601 48.0718 68.5177C47.6921 68.6752 47.2851 68.7563 46.8741 68.7563C46.463 68.7563 46.056 68.6752 45.6764 68.5177C45.2967 68.3601 44.9518 68.1292 44.6616 67.8382L35.2866 58.4632C34.996 58.1727 34.7655 57.8277 34.6083 57.4481C34.4511 57.0685 34.3701 56.6616 34.3701 56.2507C34.3701 55.8398 34.4511 55.4329 34.6083 55.0533C34.7655 54.6737 34.996 54.3288 35.2866 54.0382C35.8734 53.4514 36.6692 53.1218 37.4991 53.1218C37.91 53.1218 38.3168 53.2027 38.6965 53.3599C39.0761 53.5172 39.421 53.7477 39.7116 54.0382L46.8741 61.207L63.4116 44.6632C63.7018 44.3722 64.0467 44.1413 64.4264 43.9837C64.806 43.8262 65.213 43.7451 65.6241 43.7451C66.0351 43.7451 66.4421 43.8262 66.8218 43.9837C67.2014 44.1413 67.5463 44.3722 67.8366 44.6632Z" fill="#CFD34E"/>
<path d="M21.875 0C22.7038 0 23.4987 0.32924 24.0847 0.915291C24.6708 1.50134 25 2.2962 25 3.125V6.25H75V3.125C75 2.2962 75.3292 1.50134 75.9153 0.915291C76.5013 0.32924 77.2962 0 78.125 0C78.9538 0 79.7487 0.32924 80.3347 0.915291C80.9208 1.50134 81.25 2.2962 81.25 3.125V6.25H87.5C90.8152 6.25 93.9946 7.56696 96.3388 9.91117C98.683 12.2554 100 15.4348 100 18.75V87.5C100 90.8152 98.683 93.9946 96.3388 96.3388C93.9946 98.683 90.8152 100 87.5 100H12.5C9.18479 100 6.00537 98.683 3.66117 96.3388C1.31696 93.9946 0 90.8152 0 87.5V18.75C0 15.4348 1.31696 12.2554 3.66117 9.91117C6.00537 7.56696 9.18479 6.25 12.5 6.25H18.75V3.125C18.75 2.2962 19.0792 1.50134 19.6653 0.915291C20.2513 0.32924 21.0462 0 21.875 0V0ZM6.25 25V87.5C6.25 89.1576 6.90848 90.7473 8.08058 91.9194C9.25268 93.0915 10.8424 93.75 12.5 93.75H87.5C89.1576 93.75 90.7473 93.0915 91.9194 91.9194C93.0915 90.7473 93.75 89.1576 93.75 87.5V25H6.25Z" fill="#CFD34E"/>
</svg>
