<svg width="181" height="68" viewBox="0 0 181 68" fill="none" xmlns="http://www.w3.org/2000/svg">
<path d="M49.4601 29.2831C49.118 28.5257 48.3454 28.0364 47.4923 28.0364H29.6358L38.2369 4.66762C38.5798 3.73556 38.1985 2.69799 37.3247 2.186C36.4504 1.67374 35.3253 1.82867 34.6332 2.55611L0.569014 38.3558C-0.00939426 38.9636 -0.161803 39.8456 0.18083 40.6031C0.52289 41.3605 1.29553 41.8497 2.14868 41.8497H13.7572C14.9441 41.8497 15.9059 40.9174 15.9059 39.7673C15.9059 38.6173 14.9441 37.685 13.7572 37.685H7.05268L30.6488 12.8868L24.5639 29.4188C24.3296 30.0566 24.4402 30.7652 24.843 31.3185C25.2455 31.8719 25.9115 32.2009 26.6103 32.2009H42.588L18.9953 56.9963L25.081 40.467C25.3159 39.8293 25.2162 39.1207 24.8135 38.5674C24.4107 38.014 23.756 37.6847 23.0573 37.6847H23.0361C22.0263 37.6847 21.1869 38.36 20.9591 39.2698L11.4055 65.2177C11.0623 66.1497 11.4436 67.1873 12.3174 67.6993C12.6626 67.9017 13.047 68 13.4284 68C14.0125 68 14.59 67.7693 15.0089 67.3292L49.0714 31.5298C49.65 30.9223 49.8025 30.0405 49.4601 29.2831Z" fill="white"/>
<path d="M51.5741 1.79947H56.6764V67.9448H51.5741V1.79947Z" fill="white"/>
<path d="M72.8349 15.4951C71.6483 15.0895 70.5695 14.6838 69.5987 14.2782C68.6278 13.8455 67.7918 13.3317 67.0906 12.7368C66.3894 12.1419 65.8366 11.4388 65.432 10.6275C65.0545 9.78922 64.8657 8.77514 64.8657 7.58529C64.8657 5.28672 65.7422 3.44786 67.4951 2.06872C69.275 0.689572 71.7561 0 74.9384 0C76.0981 0 77.1768 0.0811259 78.1747 0.243378C79.1725 0.405631 80.022 0.66253 80.7232 1.01408C81.4513 1.33858 82.0177 1.77125 82.4222 2.31209C82.8267 2.82589 83.029 3.43434 83.029 4.13743C83.029 4.84053 82.8672 5.44897 82.5435 5.96277C82.2199 6.44953 81.8289 6.86868 81.3704 7.22023C80.7771 6.84164 79.9815 6.51713 78.9837 6.24671C77.9859 5.94925 76.8937 5.80052 75.707 5.80052C74.4935 5.80052 73.6035 5.97629 73.0372 6.32784C72.4708 6.65234 72.1876 7.0715 72.1876 7.58529C72.1876 7.99092 72.3629 8.32895 72.7135 8.59937C73.0641 8.84275 73.59 9.07261 74.2912 9.28894L76.4352 9.97852C78.9702 10.7898 80.912 11.8309 82.2604 13.1019C83.6358 14.3458 84.3235 16.0495 84.3235 18.2128C84.3235 20.5114 83.42 22.3773 81.6131 23.8105C79.8062 25.2167 77.1498 25.9198 73.6439 25.9198C72.4034 25.9198 71.2437 25.8116 70.165 25.5953C69.1132 25.406 68.1828 25.1221 67.3738 24.7435C66.5917 24.3378 65.9714 23.8511 65.5129 23.2832C65.0814 22.6883 64.8657 22.0122 64.8657 21.255C64.8657 20.4708 65.0949 19.8083 65.5534 19.2675C66.0119 18.6996 66.5108 18.2669 67.0501 17.9694C67.8053 18.5644 68.7222 19.0782 69.8009 19.5108C70.9066 19.9435 72.1067 20.1598 73.4012 20.1598C74.7227 20.1598 75.6531 19.957 76.1925 19.5514C76.7318 19.1458 77.0015 18.6725 77.0015 18.1317C77.0015 17.5909 76.7858 17.1852 76.3543 16.9148C75.9228 16.6173 75.316 16.3334 74.5339 16.063L72.8349 15.4951Z" fill="white"/>
<path d="M87.5132 5.84108C87.7829 5.75996 88.2009 5.67883 88.7673 5.5977C89.3606 5.51658 89.9674 5.47601 90.5876 5.47601C91.181 5.47601 91.7068 5.51658 92.1653 5.5977C92.6507 5.67883 93.0553 5.84108 93.3789 6.08446C93.7025 6.32784 93.9452 6.66587 94.107 7.09854C94.2958 7.50417 94.3902 8.04501 94.3902 8.72106V17.4421C94.3902 18.5508 94.6599 19.3486 95.1993 19.8353C95.7386 20.2951 96.5207 20.5249 97.5455 20.5249C98.1658 20.5249 98.6647 20.4708 99.0423 20.3627C99.4468 20.2545 99.7569 20.1463 99.9727 20.0382V5.84108C100.242 5.75996 100.66 5.67883 101.227 5.5977C101.82 5.51658 102.427 5.47601 103.047 5.47601C103.64 5.47601 104.166 5.51658 104.625 5.5977C105.11 5.67883 105.515 5.84108 105.838 6.08446C106.162 6.32784 106.405 6.66587 106.566 7.09854C106.755 7.50417 106.85 8.04501 106.85 8.72106V21.0522C106.85 22.4043 106.283 23.4184 105.151 24.0945C104.207 24.6894 103.074 25.1356 101.753 25.433C100.458 25.7576 99.0423 25.9198 97.5051 25.9198C96.0488 25.9198 94.7003 25.7576 93.4598 25.433C92.2462 25.1085 91.1944 24.6083 90.3045 23.9322C89.4145 23.2562 88.7268 22.3908 88.2414 21.3362C87.756 20.2545 87.5132 18.9565 87.5132 17.4421V5.84108Z" fill="white"/>
<path d="M120.079 4.94869C121.697 4.94869 123.194 5.16503 124.569 5.5977C125.972 6.00333 127.172 6.63882 128.17 7.50417C129.167 8.36951 129.949 9.46472 130.516 10.7898C131.082 12.0878 131.365 13.6427 131.365 15.4545C131.365 17.1852 131.123 18.6996 130.637 19.9976C130.152 21.2956 129.464 22.3908 128.574 23.2832C127.684 24.1485 126.605 24.7976 125.338 25.2302C124.097 25.6629 122.708 25.8792 121.171 25.8792C120.012 25.8792 118.933 25.7035 117.935 25.3519V32.0854C117.665 32.1665 117.234 32.2476 116.64 32.3288C116.047 32.4369 115.44 32.491 114.82 32.491C114.227 32.491 113.687 32.4505 113.202 32.3693C112.744 32.2882 112.352 32.126 112.029 31.8826C111.705 31.6392 111.463 31.3012 111.301 30.8685C111.139 30.4629 111.058 29.922 111.058 29.246V9.7757C111.058 9.04557 111.206 8.45064 111.503 7.99092C111.827 7.53121 112.258 7.11206 112.797 6.73347C113.633 6.19263 114.672 5.75996 115.912 5.43545C117.153 5.11095 118.542 4.94869 120.079 4.94869ZM120.16 20.4438C122.938 20.4438 124.326 18.7807 124.326 15.4545C124.326 13.7238 123.976 12.4393 123.275 11.601C122.601 10.7627 121.616 10.3436 120.322 10.3436C119.809 10.3436 119.351 10.4112 118.946 10.5464C118.542 10.6546 118.191 10.7898 117.895 10.952V19.8759C118.218 20.0382 118.569 20.1734 118.946 20.2815C119.324 20.3897 119.728 20.4438 120.16 20.4438Z" fill="white"/>
<path d="M145.118 25.9198C143.527 25.9198 142.043 25.7035 140.668 25.2708C139.319 24.8111 138.133 24.135 137.108 23.2426C136.11 22.3503 135.315 21.228 134.721 19.8759C134.155 18.5238 133.872 16.9418 133.872 15.13C133.872 13.3453 134.155 11.8174 134.721 10.5464C135.315 9.24838 136.083 8.19374 137.027 7.38248C137.971 6.54418 139.05 5.93573 140.263 5.55714C141.477 5.15151 142.717 4.94869 143.985 4.94869C145.414 4.94869 146.709 5.16503 147.868 5.5977C149.055 6.03038 150.066 6.6253 150.902 7.38248C151.765 8.13966 152.426 9.04557 152.885 10.1002C153.37 11.1548 153.613 12.3041 153.613 13.5481C153.613 14.4675 153.357 15.1706 152.844 15.6573C152.332 16.1441 151.617 16.4551 150.7 16.5903L140.708 18.0911C141.005 18.9835 141.612 19.6596 142.529 20.1193C143.446 20.552 144.497 20.7683 145.684 20.7683C146.79 20.7683 147.828 20.6331 148.799 20.3627C149.797 20.0652 150.606 19.7272 151.226 19.3486C151.658 19.619 152.022 19.9976 152.318 20.4844C152.615 20.9711 152.763 21.4849 152.763 22.0257C152.763 23.2426 152.197 24.1486 151.064 24.7435C150.201 25.2032 149.23 25.5142 148.152 25.6764C147.073 25.8387 146.062 25.9198 145.118 25.9198ZM143.985 9.97852C143.338 9.97852 142.771 10.0867 142.286 10.303C141.827 10.5194 141.45 10.8033 141.153 11.1548C140.857 11.4793 140.627 11.8579 140.466 12.2906C140.331 12.6962 140.25 13.1154 140.223 13.5481L147.14 12.4123C147.059 11.8715 146.763 11.3306 146.25 10.7898C145.738 10.2489 144.983 9.97852 143.985 9.97852Z" fill="white"/>
<path d="M163.8 25.2302C163.53 25.3114 163.099 25.3925 162.505 25.4736C161.939 25.5547 161.346 25.5953 160.725 25.5953C160.132 25.5953 159.593 25.5547 159.107 25.4736C158.649 25.3925 158.258 25.2302 157.934 24.9869C157.611 24.7435 157.354 24.419 157.166 24.0133C157.004 23.5807 156.923 23.0263 156.923 22.3503V10.1813C156.923 9.55936 157.031 9.03204 157.247 8.59937C157.489 8.13966 157.826 7.73403 158.258 7.38248C158.689 7.03093 159.215 6.71995 159.835 6.44953C160.483 6.15207 161.17 5.89517 161.899 5.67883C162.627 5.46249 163.382 5.30024 164.164 5.19207C164.946 5.05686 165.728 4.98926 166.51 4.98926C167.805 4.98926 168.829 5.24616 169.585 5.75996C170.34 6.24671 170.717 7.05797 170.717 8.19374C170.717 8.57233 170.663 8.95092 170.555 9.32951C170.448 9.68105 170.313 10.0056 170.151 10.303C169.585 10.303 169.005 10.3301 168.411 10.3841C167.818 10.4382 167.238 10.5194 166.672 10.6275C166.106 10.7357 165.566 10.8574 165.054 10.9926C164.568 11.1008 164.15 11.236 163.8 11.3982V25.2302Z" fill="white"/>
<path d="M89.0686 35.0952C89.314 35.4819 89.5243 36.0092 89.6996 36.6771C89.91 37.3099 90.0152 37.9778 90.0152 38.6809C90.0152 40.052 89.7172 41.0363 89.1212 41.6339C88.5602 42.1964 87.7889 42.4776 86.8073 42.4776H75.7637V48.4364H87.2806C87.561 48.8231 87.7889 49.3328 87.9642 49.9656C88.1746 50.5984 88.2798 51.2663 88.2798 51.9694C88.2798 53.3053 87.9818 54.272 87.3857 54.8697C86.8248 55.4321 86.0535 55.7134 85.0718 55.7134H75.8688V66.8398C75.4832 66.9453 74.8697 67.0508 74.0282 67.1562C73.2219 67.2617 72.4155 67.3144 71.6092 67.3144C70.8028 67.3144 70.0841 67.2441 69.453 67.1035C68.857 66.998 68.3487 66.7871 67.928 66.4707C67.5073 66.1543 67.1917 65.7149 66.9814 65.1524C66.771 64.5899 66.6658 63.8517 66.6658 62.9377V39.9992C66.6658 38.4876 67.1041 37.2923 67.9806 36.4135C68.857 35.5346 70.049 35.0952 71.5566 35.0952H89.0686Z" fill="white"/>
<path d="M99.7954 36.0443C100.391 35.6928 101.285 35.3588 102.477 35.0424C103.704 34.726 104.932 34.5678 106.159 34.5678C107.912 34.5678 109.454 34.8315 110.786 35.3588C112.154 35.851 113.03 36.642 113.416 37.7318C114.047 39.5598 114.731 41.6867 115.467 44.1123C116.203 46.538 116.939 49.0516 117.676 51.653C118.412 54.2193 119.13 56.768 119.832 59.2992C120.533 61.7951 121.146 64.0099 121.672 65.9434C121.252 66.4356 120.621 66.8223 119.779 67.1035C118.938 67.4199 117.938 67.5781 116.782 67.5781C115.94 67.5781 115.221 67.5078 114.625 67.3671C114.064 67.2265 113.591 67.0156 113.206 66.7344C112.855 66.4531 112.557 66.084 112.312 65.627C112.101 65.17 111.908 64.6427 111.733 64.045L110.786 60.4065H101.268C100.987 61.4612 100.707 62.551 100.426 63.6759C100.146 64.8009 99.8655 65.8907 99.5851 66.9453C99.0942 67.1211 98.5684 67.2617 98.0074 67.3671C97.4815 67.5078 96.8329 67.5781 96.0616 67.5781C94.2736 67.5781 92.9414 67.2793 92.0649 66.6816C91.2235 66.0489 90.8028 65.1876 90.8028 64.0978C90.8028 63.6056 90.8729 63.1134 91.0131 62.6213C91.1534 62.1291 91.3111 61.549 91.4864 60.8811C91.7318 59.9319 92.0649 58.7543 92.4856 57.3481C92.9414 55.9419 93.4322 54.4302 93.9581 52.8131C94.484 51.1608 95.0449 49.4734 95.6409 47.7508C96.2369 46.0283 96.7979 44.4112 97.3238 42.8995C97.8496 41.3527 98.3229 39.9817 98.7436 38.7864C99.1994 37.5911 99.55 36.6771 99.7954 36.0443ZM106.106 42.8468C105.615 44.3233 105.054 45.9755 104.423 47.8036C103.827 49.5965 103.284 51.4245 102.793 53.2877H109.314C108.823 51.3894 108.315 49.5437 107.789 47.7508C107.298 45.9228 106.842 44.2881 106.422 42.8468H106.106Z" fill="white"/>
<path d="M141.718 41.5285C139.019 41.5285 136.95 42.3546 135.513 44.0069C134.076 45.6591 133.357 47.9969 133.357 51.0202C133.357 54.0787 134.146 56.434 135.723 58.0863C137.336 59.7386 139.492 60.5647 142.192 60.5647C143.629 60.5647 144.839 60.3714 145.82 59.9847C146.837 59.598 147.801 59.1585 148.713 58.6664C149.309 59.1585 149.764 59.7562 150.08 60.4593C150.431 61.1272 150.606 61.9182 150.606 62.8322C150.606 64.2735 149.799 65.504 148.187 66.5234C146.609 67.5078 144.19 67.9999 140.93 67.9999C138.581 67.9999 136.372 67.666 134.303 66.998C132.235 66.3301 130.429 65.3106 128.887 63.9396C127.344 62.5334 126.117 60.7757 125.206 58.6664C124.329 56.5219 123.891 53.9732 123.891 51.0202C123.891 48.2782 124.312 45.8701 125.153 43.7959C126.029 41.6867 127.204 39.9114 128.676 38.47C130.184 37.0287 131.937 35.9389 133.935 35.2006C135.934 34.4624 138.072 34.0933 140.351 34.0933C143.577 34.0933 146.066 34.6206 147.819 35.6752C149.607 36.7299 150.501 38.0833 150.501 39.7356C150.501 40.6496 150.273 41.4406 149.817 42.1085C149.361 42.7765 148.835 43.3038 148.239 43.6905C147.328 43.0929 146.346 42.5831 145.294 42.1613C144.278 41.7394 143.086 41.5285 141.718 41.5285Z" fill="white"/>
<path d="M154.758 42.4776C154.513 42.0909 154.285 41.5636 154.075 40.8957C153.864 40.2277 153.759 39.5247 153.759 38.7864C153.759 37.4154 154.057 36.431 154.653 35.8334C155.284 35.2358 156.091 34.937 157.072 34.937H180.001C180.246 35.3237 180.474 35.851 180.684 36.5189C180.895 37.1869 181 37.89 181 38.6282C181 39.9992 180.684 40.9836 180.053 41.5812C179.457 42.1788 178.669 42.4776 177.687 42.4776H171.85V66.8398C171.464 66.9453 170.85 67.0508 170.009 67.1562C169.203 67.2617 168.396 67.3144 167.59 67.3144C166.784 67.3144 166.065 67.2441 165.434 67.1035C164.838 66.998 164.329 66.7871 163.909 66.4707C163.488 66.1543 163.172 65.7149 162.962 65.1524C162.752 64.5899 162.647 63.8517 162.647 62.9377V42.4776H154.758Z" fill="white"/>
</svg>
