<svg width="1920" height="465" viewBox="0 0 1920 465" fill="none" xmlns="http://www.w3.org/2000/svg">
<path fill-rule="evenodd" clip-rule="evenodd" d="M-1537 316.798L-1197.29 292.098C-857.583 267.398 -178.167 217.997 501.25 143.896C1180.67 69.7954 1860.08 -29.0058 2539.5 8.04463C3218.92 45.0951 3898.33 217.997 4577.75 279.748C5257.17 341.499 5936.58 292.098 6276.29 267.398L6616 242.697V465H6276.29C5936.58 465 5257.17 465 4577.75 465C3898.33 465 3218.92 465 2539.5 465C1860.08 465 1180.67 465 501.25 465C-178.167 465 -857.583 465 -1197.29 465H-1537V316.798Z" fill="#F10A50"/>
</svg>
