<svg width="1919" height="714" viewBox="0 0 1919 714" fill="none" xmlns="http://www.w3.org/2000/svg">
<path fill-rule="evenodd" clip-rule="evenodd" d="M0 428.653H81.9C163.8 428.653 327.6 428.653 491.4 428.653C655.2 428.653 819 428.653 982.8 397.314C1146.6 365.976 1310.4 301.649 1474.2 207.633C1638 111.967 1801.8 -15.0371 1965.6 1.45697C2129.4 17.951 2293.2 176.294 2375.1 255.465L2457 334.637V714H2375.1C2293.2 714 2129.4 714 1965.6 714C1801.8 714 1638 714 1474.2 714C1310.4 714 1146.6 714 982.8 714C819 714 655.2 714 491.4 714C327.6 714 163.8 714 81.9 714H0V428.653Z" fill="#FFDCDB"/>
</svg>
